<svg viewBox="0 0 120 120" xmlns="http://www.w3.org/2000/svg">
  <circle cx="60" cy="60" r="58" fill="#7d8aa8"/>
  <ellipse cx="60" cy="72" rx="34" ry="30" fill="#aab4c8"/>
  <ellipse cx="60" cy="80" rx="20" ry="16" fill="#e7ebf2"/>
  <circle cx="47" cy="66" r="6" fill="#232a44"/>
  <circle cx="73" cy="66" r="6" fill="#232a44"/>
  <circle cx="49" cy="64" r="1.8" fill="#f2ede0"/>
  <circle cx="75" cy="64" r="1.8" fill="#f2ede0"/>
  <ellipse cx="60" cy="78" rx="5" ry="3.5" fill="#4a4f63"/>
  <path d="M60 81 Q60 86 55 88" stroke="#4a4f63" stroke-width="2.5" fill="none" stroke-linecap="round"/>
  <path d="M60 81 Q60 86 65 88" stroke="#4a4f63" stroke-width="2.5" fill="none" stroke-linecap="round"/>
  <!-- whiskers -->
  <path d="M40 78 L20 74" stroke="#4a4f63" stroke-width="1.5" stroke-linecap="round"/>
  <path d="M40 82 L20 84" stroke="#4a4f63" stroke-width="1.5" stroke-linecap="round"/>
  <path d="M80 78 L100 74" stroke="#4a4f63" stroke-width="1.5" stroke-linecap="round"/>
  <path d="M80 82 L100 84" stroke="#4a4f63" stroke-width="1.5" stroke-linecap="round"/>
  <ellipse cx="30" cy="96" rx="10" ry="5" fill="#aab4c8"/>
  <ellipse cx="90" cy="96" rx="10" ry="5" fill="#aab4c8"/>
</svg>
